<svg xmlns="http://www.w3.org/2000/svg" viewBox="0 0 438.78 232.32"><defs><style>.cls-1{fill:#1d1d1b;}</style></defs><g id="Capa_2" data-name="Capa 2"><g id="Capa_1-2" data-name="Capa 1"><path id="Nuevo_Vector" data-name="Nuevo Vector" class="cls-1" d="M431.54,69.24a15.74,15.74,0,0,0,1.19,6l-.09.14h.15a13.54,13.54,0,0,0,1.68,2.92,12.74,12.74,0,0,0,1.15,1.38,10.55,10.55,0,0,1,2.27,6.36A9.47,9.47,0,0,1,437,90C433.64,97.51,421.08,104,407.52,104c-8.89,0-16.34-2.8-21.16-6.85a19.53,19.53,0,0,1-2.75-2.79c-.83.72-1.63,1.48-2.42,2.26a82.24,82.24,0,0,0-24.53,59.11,84.53,84.53,0,0,0,2.14,19c.46,2.07,1,4.1,1.63,6.1h0a36,36,0,0,0,5.72,13.84,31,31,0,0,0,24.31,13.82q.57,0,1.14,0a28.74,28.74,0,0,0,3.23-.18h0a28.67,28.67,0,0,1,6.64,1c4.88,1.33,8.17,3.91,8.17,6.86,0,3.49-4.61,6.44-11,7.47H373.37c-13.05,0-24.24-6.56-29-15.9,0,0,0,0,0-.05L343,204.49l-36.33-87.63a66.14,66.14,0,0,1-27.37,18A70.28,70.28,0,0,1,256,138.81a72.13,72.13,0,0,1-11.56-.94,67.41,67.41,0,0,1-37.34-19.14,88.58,88.58,0,0,1,.75,11.64c0,18.33-5.46,34.8-14.17,46.17a47.34,47.34,0,0,1-8.11,8.35,37.48,37.48,0,0,1-7.68,4.74l-.09,0c-3.88,2-8,8.46-7,13.66,1.7,8.27,16.28,11.48,18.42,11.95,3.44.76,5.47.63,8.81,2.34.88.44,9,4.58,8.08,9.16-.54,2.83-4.38,5.11-9.16,5.54l-42.59-1.23c-7.08-1.34-12.62-4.74-13.88-8.49a25.34,25.34,0,0,1-1-7.55c0-1,.06-1.69.1-2.11.82-9.6,1.27-14.85,3.44-21.23a54.3,54.3,0,0,1,2.51-6.09,45.45,45.45,0,0,1,4.73-7.8q.83-.94,1.59-2a39.88,39.88,0,0,0,7.46-23.71c0-5.57,0-14.86-6.12-21.77s-12.3-4.58-20.27-13.26a62.36,62.36,0,0,1-7.43-10.32,54.62,54.62,0,0,1-2.72-5.61,58.36,58.36,0,0,1-4.43-22.07v-.4a57.58,57.58,0,0,1,8-29.49l.33-.56,5.22-6.59A131.85,131.85,0,0,0,74.07,56.69c-11,5.76-30.36,16.18-43.13,38.54-3.23,5.67-9.93,17.71-10.78,34.51-.14,2.85-1.65,43.77,25.61,57.68,13.41,6.86,33.63,7.07,42.29-3,1-1.2,6.37-7.44,6.11-15.26a70,70,0,0,0-1.77-11.34c-1.17-5-2-6.62-1.08-8.35,1.54-2.77,6.58-3.82,10.24-2.43,4.51,1.72,6.14,6.81,8.09,12.94,1.22,3.83,2.93,9.19,2.16,16.17a39.77,39.77,0,0,1-8.9,19.41c-12.32,14.41-41.28,18.09-63,8.51C9.22,190.49-.32,153.5,0,130.29.3,109.94,8.22,94.86,11.8,88.23c7.49-13.88,18.71-26.79,41.51-42.06C93.56,19.25,138.37,7.22,163.63,1.88h0c2.14-.47,4.47-.89,7-1.21A81.23,81.23,0,0,1,181.37,0c7.19.16,15,.67,23.46,1.7A234.86,234.86,0,0,1,233,6.89l35.44,10.64L284,22.21l26.56,8h.06a40.14,40.14,0,0,0,7.29,2.16h0a55.51,55.51,0,0,0,10.86,1.05A57.29,57.29,0,0,0,336,33a38.61,38.61,0,0,0,14.49-4.5,14,14,0,0,0,5.33-5l.32-.26a54,54,0,0,1,33.63-11.31c27.42,0,49,19.12,49,42.73,0,.36,0,.73,0,1.1A16.37,16.37,0,0,0,431.54,69.24Z"/></g></g></svg>